<?xml version="1.0" encoding="utf-8"?>
<!-- Generator: Adobe Illustrator 24.0.1, SVG Export Plug-In . SVG Version: 6.00 Build 0)  -->
<svg version="1.1" id="Layer_1" xmlns="http://www.w3.org/2000/svg" xmlns:xlink="http://www.w3.org/1999/xlink" x="0px" y="0px"
	 viewBox="0 0 24 24" style="enable-background:new 0 0 24 24;" xml:space="preserve">
<style type="text/css">
	.st0{fill-rule:evenodd;clip-rule:evenodd;fill:#FFFFFF;}
</style>
<path class="st0" d="M12,22.2c-0.4,0-1.1-0.7-1.7-2.3c-0.6,0.3-1.1,0.5-1.6,0.7c0.8,2,1.9,3.3,3.3,3.3c1.4,0,2.6-1.4,3.3-3.5
	c-0.5-0.2-1-0.4-1.6-0.7C13.1,21.5,12.4,22.2,12,22.2z M7.3,20C4.2,21.2,1,21.2,1,18.4c0-0.9,0.4-2.3,1.8-4.1
	c0.6-0.8,1.3-1.5,1.9-2.2C6.3,10.5,8,9,10.2,7.5C9.2,6.9,8,6.3,6.8,5.9c-1.2-0.4-2.2-0.7-3-0.7c-0.5,0-0.9,0.1-1,0.3
	C2.7,5.7,2.7,6.3,3.2,7.3l0.2,0c1,0,1.9,0.9,1.9,1.9s-0.9,1.9-1.9,1.9c-1,0-1.9-0.9-1.9-1.9c0-0.3,0.1-0.7,0.2-1
	C1.2,7.3,1,6.4,1,5.8c0-1.5,1.2-2.4,2.8-2.4c2.5,0,5.9,1.7,8.1,2.9c2.2-1.4,5.7-3.2,8.3-3.2c1.9,0,2.8,1.1,2.8,2.4
	c0,0.9-0.4,2.3-1.8,4.1C18.1,13.8,12,18.3,7.3,20z M22.2,15.7c0.1-0.3,0.2-0.6,0.2-0.9c0-1.1-0.8-1.9-1.9-1.9s-1.9,0.9-1.9,1.9
	c0,1.1,0.8,1.9,1.9,1.9l0.3,0c0.6,1,0.5,1.6,0.4,1.8c-0.1,0.2-0.5,0.3-1,0.3c-1.6,0-3.8-0.9-5.3-1.7c-0.5,0.3-1.1,0.7-1.7,1.1
	c1.9,1,4.8,2.3,6.9,2.3c1.6,0,2.8-0.8,2.8-2.4C23,17.6,22.8,16.8,22.2,15.7z M9.4,15.8L9.4,15.8L9.4,15.8C8.2,15,7.1,14.1,6,13.2
	c-2.8,2.9-3.6,5-3.2,5.5c0.1,0.2,0.5,0.3,1,0.3c2.4,0,6.1-2,8.3-3.5c2.7-1.8,5.8-4.3,7.7-6.9c1.5-2,1.6-3.1,1.4-3.4
	c-0.1-0.2-0.5-0.3-1-0.3c-2,0-4.9,1.5-6.6,2.4c1.3,0.8,2.4,1.7,3.5,2.6c-0.4,0.4-0.8,0.8-1.3,1.2c-1.2-1-2.5-1.9-3.9-2.8
	c-1.6,1-3.2,2.3-4.6,3.6c1.1,1,2.4,1.9,3.7,2.9C10.5,15.2,10,15.5,9.4,15.8z M12,10c1.1,0,2,0.9,2,2s-0.9,2-2,2s-2-0.9-2-2
	S10.9,10,12,10z M10.3,4.2C9.7,3.9,9.2,3.7,8.7,3.5C9.4,1.4,10.6,0,12,0c1.4,0,2.5,1.3,3.3,3.3c-0.5,0.2-1,0.4-1.6,0.7
	c-0.6-1.6-1.3-2.3-1.7-2.3C11.6,1.8,10.9,2.5,10.3,4.2z"/>
</svg>
