<svg xmlns="http://www.w3.org/2000/svg" xmlns:xlink="http://www.w3.org/1999/xlink" viewBox="0 0 1145.25 1214.81"><defs><style>.cls-1,.cls-5{fill:none;}.cls-2{isolation:isolate;}.cls-3{fill:url(#radial-gradient);}.cls-4{clip-path:url(#clip-path);}.cls-5{stroke:#fff;stroke-miterlimit:10;mix-blend-mode:soft-light;}.cls-6{fill:#fff;}</style><radialGradient id="radial-gradient" cx="342.03" cy="265.01" r="900.24" gradientUnits="userSpaceOnUse"><stop offset="0" stop-color="#6868fa"/><stop offset="0.99" stop-color="#4524cb"/></radialGradient><clipPath id="clip-path" transform="translate(245.19 410.72)"><rect class="cls-1" width="750" height="500"/></clipPath></defs><title>student background</title><g class="cls-2"><g id="OBJECTS"><rect class="cls-3" x="245.19" y="410.72" width="750" height="500"/><g class="cls-4"><path class="cls-5" d="M103.37-322.36S196.05-110.7,62.6,155.28,119.26,617.83,374.77,619.4" transform="translate(245.19 410.72)"/><path class="cls-5" d="M165.23-258.1s94.9,140.23,10.62,303.84S-33.79,391.36,310.42,555.67" transform="translate(245.19 410.72)"/><path class="cls-5" d="M197.84,803.74c-3.54-3.55-354.07-120.29-256.4-368.27S-35.4,75.64-244.92-60.21" transform="translate(245.19 410.72)"/><path class="cls-5" d="M841.23-410.7s7,231-216,428-120,450.3,116.51,547.07" transform="translate(245.19 410.72)"/><path class="cls-5" d="M895.45-294.56S931.2-129,792-8.69,468.54,233.78,726.6,514.63" transform="translate(245.19 410.72)"/><path class="cls-5" d="M617.21,551.69c-2-4.6-343.87-222.11-160.75-415.76s155.72-325.21,12-529.42" transform="translate(245.19 410.72)"/></g><path class="cls-6" d="M750,520H0V462.12a4024.59,4024.59,0,0,1,750,0Z" transform="translate(245.19 410.72)"/><circle class="cls-6" cx="421.91" cy="787.57" r="1.66"/><circle class="cls-6" cx="442.37" cy="787.57" r="1.66"/><circle class="cls-6" cx="462.84" cy="787.57" r="1.66"/><circle class="cls-6" cx="483.3" cy="787.57" r="1.66"/><path class="cls-6" d="M260.24,376.86a1.66,1.66,0,1,1-1.66-1.66A1.66,1.66,0,0,1,260.24,376.86Z" transform="translate(245.19 410.72)"/><circle class="cls-6" cx="421.91" cy="805.52" r="1.66"/><circle class="cls-6" cx="442.37" cy="805.52" r="1.66"/><circle class="cls-6" cx="462.84" cy="805.52" r="1.66"/><circle class="cls-6" cx="483.3" cy="805.52" r="1.66"/><path class="cls-6" d="M260.24,394.81a1.66,1.66,0,1,1-1.66-1.66A1.66,1.66,0,0,1,260.24,394.81Z" transform="translate(245.19 410.72)"/><circle class="cls-6" cx="421.91" cy="823.47" r="1.66"/><circle class="cls-6" cx="442.37" cy="823.47" r="1.66"/><circle class="cls-6" cx="462.84" cy="823.47" r="1.66"/><circle class="cls-6" cx="483.3" cy="823.47" r="1.66"/><path class="cls-6" d="M260.24,412.76a1.66,1.66,0,1,1-1.66-1.66A1.66,1.66,0,0,1,260.24,412.76Z" transform="translate(245.19 410.72)"/></g></g></svg>